<?xml version="1.0" encoding="UTF-8" standalone="no"?>
<svg
   xmlns:dc="http://purl.org/dc/elements/1.1/"
   xmlns:cc="http://creativecommons.org/ns#"
   xmlns:rdf="http://www.w3.org/1999/02/22-rdf-syntax-ns#"
   xmlns:svg="http://www.w3.org/2000/svg"
   xmlns="http://www.w3.org/2000/svg"
   xmlns:sodipodi="http://sodipodi.sourceforge.net/DTD/sodipodi-0.dtd"
   xmlns:inkscape="http://www.inkscape.org/namespaces/inkscape"
   id="Layer_1"
   data-name="Layer 1"
   viewBox="0 0 150 150"
   version="1.1"
   sodipodi:docname="Scratch-01.svg"
   inkscape:version="0.92.4 (f8dce91, 2019-08-02)">
  <metadata
     id="metadata31">
    <rdf:RDF>
      <cc:Work
         rdf:about="">
        <dc:format>image/svg+xml</dc:format>
        <dc:type
           rdf:resource="http://purl.org/dc/dcmitype/StillImage" />
      </cc:Work>
    </rdf:RDF>
  </metadata>
  <sodipodi:namedview
     pagecolor="#ffffff"
     bordercolor="#666666"
     borderopacity="1"
     objecttolerance="10"
     gridtolerance="10"
     guidetolerance="10"
     inkscape:pageopacity="0"
     inkscape:pageshadow="2"
     inkscape:window-width="1920"
     inkscape:window-height="1025"
     id="namedview29"
     showgrid="false"
     inkscape:zoom="4.4500587"
     inkscape:cx="41.130138"
     inkscape:cy="78.468168"
     inkscape:window-x="0"
     inkscape:window-y="27"
     inkscape:window-maximized="1"
     inkscape:current-layer="Layer_1" />
  <defs
     id="defs4">
    <style
       id="style2">.cls-1{fill:#fff;}.cls-2{fill:none;stroke:#000;stroke-miterlimit:10;}</style>
  </defs>
  <title
     id="title6">Scratch</title>
  <rect
     class="cls-1"
     x="34.31"
     y="73.88"
     width="12.06"
     height="65.78"
     id="rect8"
     style="fill:#ff0000;fill-opacity:1" />
  <path
     d="M46,74.22v65.1H34.65V74.22H46m.69-.68H34V140H46.72V73.54Z"
     id="path10" />
  <rect
     class="cls-1"
     x="55.39"
     y="54.81"
     width="11.97"
     height="84.8"
     id="rect12"
     style="fill:#f1ff00;fill-opacity:1" />
  <path
     d="M67,55.2v84H55.77v-84H67m.77-.78H55V140H67.74V54.42Z"
     id="path14" />
  <rect
     class="cls-1"
     x="74.55"
     y="33.92"
     width="11.88"
     height="105.65"
     id="rect16"
     style="fill:#0e00ff;fill-opacity:1" />
  <path
     d="M86,34.35V139.14H75V34.35H86m.86-.87H74.12V140H86.86V33.48Z"
     id="path18" />
  <rect
     class="cls-1"
     x="94.6"
     y="21.19"
     width="11.83"
     height="118.27"
     id="rect20"
     style="fill:#14ff00;fill-opacity:1" />
  <path
     d="M106,21.64V139H95.06V21.64H106m.91-.91H94.15V139.91h12.74V20.73Z"
     id="path22" />
  <path
     class="cls-2"
     d="M24.5,78.55l9.1-7.28,12.9-.77q3.11-9.18,6.22-18.35L68.5,51.5l3-20,15-1,7-12,15-1,7-8"
     id="path24" />
  <path
     class="cls-2"
     d="M107.5,10.5l8.55-1,1,7"
     id="path26" />
</svg>
