<?xml version="1.0" encoding="UTF-8" standalone="no"?>
<svg
   xmlns:dc="http://purl.org/dc/elements/1.1/"
   xmlns:cc="http://creativecommons.org/ns#"
   xmlns:rdf="http://www.w3.org/1999/02/22-rdf-syntax-ns#"
   xmlns:svg="http://www.w3.org/2000/svg"
   xmlns="http://www.w3.org/2000/svg"
   xmlns:sodipodi="http://sodipodi.sourceforge.net/DTD/sodipodi-0.dtd"
   xmlns:inkscape="http://www.inkscape.org/namespaces/inkscape"
   id="Layer_1"
   data-name="Layer 1"
   viewBox="0 0 150 150"
   version="1.1"
   sodipodi:docname="Scratch-02.svg"
   inkscape:version="0.92.4 (f8dce91, 2019-08-02)">
  <metadata
     id="metadata45">
    <rdf:RDF>
      <cc:Work
         rdf:about="">
        <dc:format>image/svg+xml</dc:format>
        <dc:type
           rdf:resource="http://purl.org/dc/dcmitype/StillImage" />
      </cc:Work>
    </rdf:RDF>
  </metadata>
  <sodipodi:namedview
     pagecolor="#ffffff"
     bordercolor="#666666"
     borderopacity="1"
     objecttolerance="10"
     gridtolerance="10"
     guidetolerance="10"
     inkscape:pageopacity="0"
     inkscape:pageshadow="2"
     inkscape:window-width="1920"
     inkscape:window-height="1025"
     id="namedview43"
     showgrid="false"
     inkscape:zoom="6.2933333"
     inkscape:cx="58.096696"
     inkscape:cy="64.079578"
     inkscape:window-x="0"
     inkscape:window-y="27"
     inkscape:window-maximized="1"
     inkscape:current-layer="Layer_1" />
  <defs
     id="defs4">
    <style
       id="style2">.cls-1{fill:none;stroke:#000;stroke-miterlimit:10;}.cls-2{fill:#020202;}</style>
  </defs>
  <title
     id="title6">Scratch</title>
  <rect
     class="cls-1"
     x="43.5"
     y="51.5"
     width="63"
     height="90"
     id="rect8"
     style="fill:#ebd9b6;fill-opacity:1" />
  <path
     class="cls-1"
     d="M51.5,76.5c1.25-4.14,2.28-5,3-5,1,0,1.16,1.48,3,3,.38.31,3.24,2.63,6,2,1.86-.42,1.78-1.75,5-4,1.93-1.35,3.59-2.51,5-2,1.79.64,1.26,3.26,3,4,2.16.92,4.11-2.61,7-2s3.7,4.37,5,4,.7-3.59,2-4,2.78,3.15,5,3c2-.14,2.94-3.28,4-3,.45.12,1,.88,1,4"
     id="path10" />
  <path
     class="cls-1"
     d="M50.74,88.45c1.25-4.15,2.28-5,3-5,.95,0,1.17,1.47,3,3,.38.31,3.24,2.62,6,2,1.86-.43,1.78-1.75,5-4,1.93-1.35,3.59-2.51,5-2,1.79.64,1.26,3.25,3,4,2.16.92,4.12-2.61,7-2s3.7,4.36,5,4,.7-3.6,2-4,2.78,3.15,5,3c2-.14,3-3.28,4-3,.46.12,1,.88,1,4"
     id="path12" />
  <path
     class="cls-1"
     d="M50.74,99.45c1.25-4.15,2.28-5,3-5,.95,0,1.17,1.47,3,3,.38.31,3.24,2.62,6,2,1.86-.43,1.78-1.75,5-4,1.93-1.35,3.59-2.51,5-2,1.79.64,1.26,3.25,3,4,2.16.92,4.12-2.61,7-2s3.7,4.36,5,4,.7-3.6,2-4,2.78,3.15,5,3c2-.14,3-3.28,4-3,.46.12,1,.88,1,4"
     id="path14" />
  <path
     class="cls-1"
     d="M51.12,110c1.25-4.14,2.28-5,3-5,1,0,1.16,1.48,3,3,.38.32,3.24,2.63,6,2,1.86-.42,1.78-1.74,5-4,1.93-1.35,3.59-2.5,5-2,1.79.65,1.26,3.26,3,4,2.16.92,4.11-2.6,7-2s3.7,4.37,5,4,.7-3.59,2-4,2.78,3.15,5,3c2-.13,2.94-3.28,4-3,.45.12,1,.88,1,4"
     id="path16" />
  <path
     class="cls-1"
     d="M50.36,121.92c1.25-4.15,2.29-5,3-5,1,0,1.17,1.48,3,3,.38.31,3.24,2.62,6,2,1.86-.42,1.78-1.75,5-4,1.93-1.35,3.59-2.51,5-2,1.79.64,1.26,3.26,3,4,2.16.92,4.12-2.61,7-2s3.7,4.37,5,4,.71-3.6,2-4,2.78,3.15,5,3c2-.14,3-3.28,4-3,.46.12,1,.88,1,4"
     id="path18" />
  <path
     class="cls-1"
     d="M50.36,132.92c1.25-4.15,2.29-5,3-5,1,0,1.17,1.48,3,3,.38.31,3.24,2.62,6,2,1.86-.42,1.78-1.75,5-4,1.93-1.35,3.59-2.51,5-2,1.79.64,1.26,3.26,3,4,2.16.92,4.12-2.61,7-2s3.7,4.37,5,4,.71-3.6,2-4,2.78,3.15,5,3c2-.14,3-3.28,4-3,.46.12,1,.88,1,4"
     id="path20" />
  <path
     class="cls-2"
     d="M72.8,27.89l-.07,0a1.31,1.31,0,0,1-1.06-1,.7.7,0,0,1,.19-.63.35.35,0,0,1,.54,0,1.88,1.88,0,0,1,.25.8l.15.86Zm5.6-.24a4.56,4.56,0,0,1,.13-.62c.12-.42.42-.88.92-.72.14,0,.28.14.26.3s-.38.48-.58.62a4.77,4.77,0,0,1-.73.42Zm3.44,4.89a11.83,11.83,0,0,0-2.76,5.57H76.84c.45-3,.89-6,1.34-9l.14-.89a3.24,3.24,0,0,0,.6-.27,4.76,4.76,0,0,0,.94-.65,1,1,0,0,0,.34-.9.86.86,0,0,0-.57-.56,1.16,1.16,0,0,0-1.44.68,3.41,3.41,0,0,0-.27,1c0,.11,0,.22,0,.33a1.52,1.52,0,0,1-.48,0,1.18,1.18,0,0,1-.86-.45,2.15,2.15,0,0,0,.86-1.87.7.7,0,0,0-.63-.7.83.83,0,0,0-.78.61,3.62,3.62,0,0,0-.17,1.14,2.36,2.36,0,0,0,.07.65,4.28,4.28,0,0,1-1.16.44,6.53,6.53,0,0,1-1.4.26l0-.19c-.07-.4-.13-.81-.23-1.21a1.33,1.33,0,0,0-.48-.81.83.83,0,0,0-1,0,1.2,1.2,0,0,0-.47.83A1.72,1.72,0,0,0,72,28.15a2.16,2.16,0,0,0,.85.26,76.86,76.86,0,0,1,1,9l0,.73H72.83a14.4,14.4,0,0,0-2.41-5.33l0,0a7.06,7.06,0,0,1-1.94-4.84,7.57,7.57,0,0,1,15.12,0,7.05,7.05,0,0,1-1.74,4.62ZM76.1,27.68a1.8,1.8,0,0,0,1.69.66c0,.17-.05.34-.07.51-.14.89-.27,1.79-.4,2.68-.27,1.81-.55,3.63-.82,5.44l-.17,1.14H74.39a79,79,0,0,0-1-9.69,5.88,5.88,0,0,0,.95-.14,6,6,0,0,0,1.75-.6Zm.22-.82a4,4,0,0,1,.06-1,1.09,1.09,0,0,1,.14-.43c0-.07.17-.16.26-.12s.12.56.08.7a1.69,1.69,0,0,1-.43.76l-.1.11v-.05ZM79,40.18H73v-.71h6v.71Zm0,2H73v-.71h6v.71Zm-3,2.72a2.63,2.63,0,0,1-2.55-1.48h5.1A2.61,2.61,0,0,1,76,44.91Zm6.12-22.82a8.8,8.8,0,0,0-12.1,0,8,8,0,0,0-.31,11.35,14.39,14.39,0,0,1,2.27,5.28L72,39V43.2h.33a2.81,2.81,0,0,0,1.1,1.88,4.07,4.07,0,0,0,2.53.83,4.12,4.12,0,0,0,2.54-.83,2.8,2.8,0,0,0,1.09-1.88H80V39.12H80v-.49a7.59,7.59,0,0,1,1.2-3.54A13.58,13.58,0,0,1,82.6,33.2a8,8,0,0,0-.53-11.11Z"
     id="path22" />
  <path
     class="cls-2"
     d="M75.92,18.62a.87.87,0,0,0,.86-.88V15.15a.87.87,0,1,0-1.73,0v2.59a.87.87,0,0,0,.87.88Z"
     id="path24" />
  <path
     class="cls-2"
     d="M66.33,27.92a.87.87,0,0,0-.86-.89H62.94a.89.89,0,0,0,0,1.77h2.53a.87.87,0,0,0,.86-.88Z"
     id="path26" />
  <path
     class="cls-2"
     d="M89,27H86.46a.89.89,0,0,0,0,1.77H89A.89.89,0,0,0,89,27Z"
     id="path28" />
  <path
     class="cls-2"
     d="M84.45,23.22a.85.85,0,0,0,1.19.24L87.74,22A.88.88,0,0,0,88,20.78a.84.84,0,0,0-1.19-.24L84.68,22a.88.88,0,0,0-.23,1.22Z"
     id="path30" />
  <path
     class="cls-2"
     d="M80.6,19.72a.87.87,0,0,0,1.21-.2l1.48-2.11a.89.89,0,0,0-.2-1.23.86.86,0,0,0-1.2.2l-1.48,2.11a.9.9,0,0,0,.19,1.23Z"
     id="path32" />
  <path
     class="cls-2"
     d="M69.82,20.14a.86.86,0,0,0,1.21.12A.91.91,0,0,0,71.15,19l-1.61-2a.85.85,0,0,0-1.21-.12.9.9,0,0,0-.12,1.24l1.61,2Z"
     id="path34" />
  <path
     class="cls-2"
     d="M67.57,23.72a.9.9,0,0,0-.44-1.17l-2.31-1.06a.87.87,0,0,0-1.14.45h0a.9.9,0,0,0,.43,1.17l2.32,1.06a.87.87,0,0,0,1.14-.45Z"
     id="path36" />
  <path
     class="cls-2"
     d="M66.06,31.59l-2.34,1a.89.89,0,0,0-.47,1.15.85.85,0,0,0,1.12.48l2.35-1a.89.89,0,0,0,.47-1.15.87.87,0,0,0-1.13-.48Z"
     id="path38" />
  <path
     class="cls-2"
     d="M88.55,32.47l-2.2-1.29a.84.84,0,0,0-1.17.32.89.89,0,0,0,.31,1.2l2.2,1.3a.86.86,0,0,0,1.18-.32.91.91,0,0,0-.32-1.21Z"
     id="path40" />
  <path
     style="fill:#ece000;fill-opacity:1;stroke-width:0.03972458"
     d="m 72.720421,37.745135 c -0.20307,-0.844777 -0.650829,-2.055984 -1.066951,-2.886143 -0.421835,-0.841555 -1.056849,-1.841535 -1.444842,-2.275246 -0.545497,-0.609774 -1.108885,-1.602549 -1.382108,-2.435483 -0.277166,-0.844958 -0.400382,-1.796242 -0.325861,-2.515799 0.274789,-2.653285 1.828752,-4.900845 4.193582,-6.065349 2.097504,-1.032866 4.517196,-1.047293 6.605679,-0.03939 2.194237,1.058945 3.686835,2.986011 4.184741,5.402843 0.07912,0.384063 0.09388,0.570733 0.09262,1.171875 -0.0016,0.756585 -0.04565,1.082507 -0.240605,1.779347 -0.278082,0.99398 -0.864842,2.061007 -1.46896,2.671316 -0.567105,0.572918 -1.260851,1.5894 -1.747533,2.560501 -0.412912,0.823903 -0.685616,1.566165 -0.910353,2.477851 l -0.128573,0.521578 -1.1179,0.01055 c -1.012884,0.0096 -1.117899,0.0044 -1.117899,-0.05445 0,-0.0765 1.3266,-9.014787 1.411418,-9.509768 0.03181,-0.185662 0.07549,-0.34345 0.09706,-0.35064 0.163088,-0.05436 0.786841,-0.387702 1.014032,-0.541909 0.588462,-0.39942 0.811873,-0.697622 0.813482,-1.085813 0.001,-0.247347 -0.06299,-0.388134 -0.251901,-0.554 -0.375826,-0.329979 -1.00998,-0.298954 -1.43016,0.06997 -0.262871,0.230804 -0.473604,0.756993 -0.556575,1.389739 l -0.04949,0.377384 -0.329766,-0.0091 c -0.376776,-0.01035 -0.656037,-0.113747 -0.861123,-0.318833 l -0.122673,-0.122673 0.249003,-0.260274 c 0.292356,-0.305588 0.469026,-0.640877 0.556904,-1.056906 0.120054,-0.568357 0.02104,-0.964719 -0.288828,-1.156229 -0.308619,-0.190737 -0.803585,-0.02835 -0.986862,0.323774 -0.16799,0.322751 -0.282146,1.213786 -0.21561,1.682927 0.04768,0.336181 0.06153,0.320486 -0.456386,0.517283 -0.59482,0.22602 -1.585153,0.459575 -1.948715,0.459575 H 73.36118 l -0.02379,-0.254768 c -0.03804,-0.407329 -0.223768,-1.257007 -0.322038,-1.473251 -0.110791,-0.243797 -0.377112,-0.515825 -0.56605,-0.57818 -0.228509,-0.07541 -0.576817,-0.03103 -0.761639,0.09705 -0.312922,0.216855 -0.47856,0.557135 -0.481355,0.988874 -0.0053,0.817365 0.573132,1.492165 1.42224,1.659217 0.134447,0.02645 0.244449,0.06078 0.244449,0.07628 0,0.0155 0.06175,0.419857 0.137215,0.898565 0.379746,2.408787 0.634897,4.710516 0.796398,7.184341 0.03273,0.50128 0.0595,1.068845 0.0595,1.261255 v 0.349837 l -0.52635,-4.53e-4 -0.526351,-4.53e-4 z"
     id="path870"
     inkscape:connector-curvature="0" />
  <path
     style="fill:#ece000;fill-opacity:1;stroke-width:0.03972458"
     d="m 74.382332,38.103109 c -0.0011,-0.164942 -0.09275,-1.718954 -0.139931,-2.373543 -0.158727,-2.202023 -0.452333,-4.75814 -0.775699,-6.753178 -0.0425,-0.262183 -0.07727,-0.496572 -0.07727,-0.520865 -4e-6,-0.02532 0.114007,-0.05585 0.267153,-0.07154 0.66385,-0.06801 1.544597,-0.303091 2.118573,-0.565462 l 0.315405,-0.144176 0.199749,0.186842 c 0.344657,0.322386 0.942554,0.53853 1.339711,0.484314 0.118046,-0.01611 0.16883,-0.0086 0.16883,0.02487 0,0.02635 -0.07107,0.513133 -0.15793,1.081735 -0.08686,0.568601 -0.408858,2.71417 -0.715547,4.767931 -0.30669,2.05376 -0.566669,3.774331 -0.577732,3.82349 l -0.02011,0.08938 h -0.972496 c -0.534872,0 -0.972587,-0.01341 -0.972699,-0.02979 z"
     id="path872"
     inkscape:connector-curvature="0" />
  <path
     style="fill:#ece000;fill-opacity:1;stroke-width:0.03972458"
     d="m 76.303213,26.790315 c -0.04024,-0.104871 0.05125,-0.955955 0.126481,-1.176569 0.115841,-0.339698 0.356545,-0.425895 0.427205,-0.152983 0.09961,0.38473 -0.07844,0.970728 -0.385225,1.267816 -0.126669,0.122667 -0.14281,0.128582 -0.168461,0.06174 z"
     id="path874"
     inkscape:connector-curvature="0" />
  <path
     style="fill:#ece000;fill-opacity:1;stroke-width:0.03972458"
     d="m 78.394718,27.603801 c 0,-0.100304 0.135811,-0.626007 0.201031,-0.778158 0.09654,-0.225216 0.330824,-0.476762 0.494296,-0.530713 0.277978,-0.09174 0.615584,0.0633 0.615584,0.282706 0,0.208466 -0.561999,0.710486 -1.100774,0.983293 -0.190946,0.09668 -0.210137,0.1006 -0.210137,0.04287 z"
     id="path876"
     inkscape:connector-curvature="0" />
  <path
     style="fill:#fff200;fill-opacity:1;stroke-width:0.03972458"
     d="m 72.495619,27.831192 c -0.44114,-0.172963 -0.771289,-0.557725 -0.838336,-0.977014 -0.07026,-0.439389 0.336202,-0.851437 0.66586,-0.675009 0.136849,0.07324 0.264739,0.440739 0.370168,1.0637 0.05513,0.325772 0.100242,0.603289 0.100242,0.616703 0,0.03868 -0.16763,0.02271 -0.297934,-0.02838 z"
     id="path878"
     inkscape:connector-curvature="0" />
  <path
     style="fill:#939393;fill-opacity:1;stroke-width:0.03972458"
     d="m 75.40573,44.884742 c -0.641307,-0.107964 -1.243086,-0.458723 -1.633387,-0.952051 -0.155963,-0.197133 -0.303472,-0.437536 -0.303472,-0.494585 0,-0.01201 1.145183,-0.02183 2.544852,-0.02183 h 2.544852 l -0.11041,0.208554 c -0.06073,0.114705 -0.255956,0.3543 -0.433845,0.532434 -0.377708,0.378227 -0.791705,0.603809 -1.29629,0.706333 -0.321686,0.06536 -0.986081,0.07607 -1.3123,0.02115 z"
     id="path880"
     inkscape:connector-curvature="0" />
  <path
     style="fill:#939393;fill-opacity:1;stroke-width:0.03972458"
     d="m 72.992176,41.827288 v -0.357521 h 2.999205 2.999206 v 0.357521 0.357521 h -2.999206 -2.999205 z"
     id="path882"
     inkscape:connector-curvature="0" />
  <path
     style="fill:#939393;fill-opacity:1;stroke-width:0.03972458"
     d="m 72.992176,39.821197 v -0.377383 h 2.999205 2.999206 v 0.377383 0.377384 h -2.999206 -2.999205 z"
     id="path884"
     inkscape:connector-curvature="0" />
</svg>
